<?xml version="1.0" ?><svg viewBox="0 0 64 64" xmlns="http://www.w3.org/2000/svg"><g data-name="filled outline" id="filled_outline"><path d="M57,44.224H9a6,6,0,0,1-6-6v-2a8.339,8.339,0,0,1,6.891-8.213L20,26.224l11.517-7,5.789-3.743a3,3,0,0,1,3.653.3l5.259,4.808a6.219,6.219,0,0,0,4.2,1.63H52.7a4.023,4.023,0,0,0,3.944-3.233h0A2.2,2.2,0,0,1,58.8,17.224h0a2.2,2.2,0,0,1,2.2,2.2v20.8A4,4,0,0,1,57,44.224Z" style="fill:#d9d9d9"/><path d="M61,34.224H47l-6,6H14l-11-4v2a6,6,0,0,0,6,6H57a4,4,0,0,0,4-4Z" style="fill:#eaeae8"/><path d="M35.58,22.552l7.552-4.779-2.173-1.987a3,3,0,0,0-3.653-.3l-5.789,3.743L20,26.224l5.719-.52A23.867,23.867,0,0,0,35.58,22.552Z" style="fill:#24729e"/><path d="M25,40.224l-2.481-5.788a2,2,0,0,0-1.838-1.212H16L13.108,27.44l-3.217.568A8.339,8.339,0,0,0,3,36.221v0l11,4Z" style="fill:#277baa"/><path d="M33.368,23.689c.624-.282,1.235-.595,1.835-.931L31.94,18.95l-.423.274-1.3.789Z" style="fill:#eaeae8"/><polygon points="33.278 18.085 36.57 21.925 38.278 20.845 34.973 16.989 33.278 18.085" style="fill:#eaeae8"/><path d="M29.644,25.011c.7-.185,1.391-.407,2.072-.655L28.755,20.9l-1.731,1.052Z" style="fill:#eaeae8"/><polygon points="61 26.224 52 26.224 47 29.224 47 34.224 61 34.224 61 26.224" style="fill:#b9b9b9"/><rect height="2" style="fill:#d9d9d9" width="5" x="56" y="29.224"/><rect height="2" style="fill:#a8a8a8" width="6" x="46" y="29.224"/><path d="M38.488,20.712l-2.908,1.84a23.914,23.914,0,0,1-4.3,1.956L39,32.224v8h2l6-6v-5Z" style="fill:#277baa"/><path d="M58.8,16.224a3.207,3.207,0,0,0-3.136,2.57,3.031,3.031,0,0,1-2.963,2.43H50.415a5.2,5.2,0,0,1-3.522-1.369l-3.086-2.821h0l-2.173-1.986a4,4,0,0,0-4.871-.407L31,18.369l-11.356,6.9-6.7,1.184h0l-3.217.568c-.28.05-.554.111-.824.184A9.325,9.325,0,0,0,2,36.221v2a7.008,7.008,0,0,0,7,7H57a5.006,5.006,0,0,0,5-5v-20.8A3.2,3.2,0,0,0,58.8,16.224Zm-33.143,23-2.221-5.183a3,3,0,0,0-2.757-1.817H16.618L14.6,28.191l5.524-.974L25.81,26.7a24.885,24.885,0,0,0,5.206-1.05L38,32.634v6.59ZM4.033,35.535l0-.02a7.358,7.358,0,0,1,.2-1.127c0-.022.009-.045.015-.067a7.3,7.3,0,0,1,.363-1.029c.017-.038.031-.077.048-.114a7.272,7.272,0,0,1,.5-.917c.028-.044.055-.088.083-.13a7.356,7.356,0,0,1,.63-.808c.037-.041.074-.082.112-.122a7.281,7.281,0,0,1,.75-.7l.127-.1a7.345,7.345,0,0,1,.868-.577c.041-.023.083-.043.123-.065a7.313,7.313,0,0,1,.991-.447c.029-.01.059-.017.088-.027a7.359,7.359,0,0,1,1.128-.3l2.483-.438,2.558,5.117a1,1,0,0,0,.895.553h4.681a1,1,0,0,1,.92.605l1.882,4.395H14.176Zm29.9-16.685,1.982,2.3-.858.543c-.172.1-.348.19-.522.285L32.6,19.716ZM46,33.806,40.586,39.22H40v-7a1,1,0,0,0-.293-.707l-6.622-6.622a24.744,24.744,0,0,0,3-1.476l.031-.019,2.234-1.413L46,29.634ZM31.019,23.537l-1.6-1.866,1.463-.889,1.808,2.111C32.14,23.131,31.583,23.343,31.019,23.537Zm-2.1.618a22.782,22.782,0,0,1-3.285.553l-1.423.13,3.478-2.115ZM48,31.224h4v-2H48.944l3.333-2H60v2H56v2h4v2H48Zm2.415-8H52.7a5.037,5.037,0,0,0,4.924-4.037A1.2,1.2,0,0,1,60,19.422v5.8H52a1,1,0,0,0-.515.142l-4.328,2.6-7.076-7.077,2.94-1.86,2.522,2.306A7.2,7.2,0,0,0,50.415,23.224Zm-12.566-6.9a2,2,0,0,1,2.435.2l1.207,1.1-3.871,2.45-1.989-2.323ZM60,40.224a3,3,0,0,1-3,3H9a5.006,5.006,0,0,1-5-5v-.573l9.658,3.512a1,1,0,0,0,.342.061H41a1,1,0,0,0,.707-.293l5.707-5.707H60Z"/></g></svg>