<?xml version="1.0" ?><svg id="icons" viewBox="0 0 340 340" xmlns="http://www.w3.org/2000/svg"><title/><path d="M291.009,238.732s-3.558-21.029-12.293-39.255a46.087,46.087,0,0,1-4.511-20.168,337.952,337.952,0,0,1,2.444-38.781c2-17.273,4.11-34.734,5.727-47.911a161.177,161.177,0,0,0-84.949-52.259c.66,17.011,2.238,52.458,4.611,73.442,2.043,18.074.782,38.56-.4,51.039a52.807,52.807,0,0,1-8.1,23.482q-.219.342-.444.689a70.192,70.192,0,0,1-22.5,21.687c-11.29,6.862-31.477,19.709-47.137,32.849,0,0-21.47,16.442-44.754,19.788a225.626,225.626,0,0,0-24.435,4.042,6.372,6.372,0,0,0-4.833,6.024s-5.969,19.405,11.292,24.228c0,0,17.5,3.319,35.515-2.311a18.59,18.59,0,0,1,12.8.655,45.832,45.832,0,0,0,6.929,2.265,51.516,51.516,0,0,0,32.3-2.781,134.4,134.4,0,0,0,16.389-8.378c15.012-8.914,31.137-11.129,44.127-11.133a48.061,48.061,0,0,1,20.822,4.745c6.847,3.294,17.815,7.114,28.946,4.984C276.768,282.189,294.89,268.917,291.009,238.732Z" style="fill:#ffd2c8"/><path d="M62.208,280.373c15.026-1.8,16.342-11.232,15.7-16.95-3.1.355-14.543,1.068-23.5,3.256-2.784.68-5.118,3.059-5.9,6.745a21.962,21.962,0,0,0,.007,5.415A26.769,26.769,0,0,0,62.208,280.373Z" style="fill:#fff0ee"/><path d="M258.7,185.205l3.513,4.764a20.39,20.39,0,0,1,2.864,14,31.312,31.312,0,0,1-1.323,4.69,18.651,18.651,0,0,1-2.431,4.2,17.992,17.992,0,0,1-3.389,3.331,3.4,3.4,0,0,1-4.79-4.7s1.265-1.94,1.742-2.859a17.174,17.174,0,0,0,1.094-2.834,16.818,16.818,0,0,0,.58-5.957A18.324,18.324,0,0,0,254.994,194s-2.222-4.78-2.478-5.442l-.71-2.173a3.116,3.116,0,0,1,5.089-3.2Z" style="fill:#ed8b84"/><path d="M147.99,295.573a134.039,134.039,0,0,0,16.668-8.5c15.012-8.914,31.137-11.129,44.127-11.133a48.044,48.044,0,0,1,20.822,4.745c6.847,3.294,17.815,7.114,28.947,4.984,14.913-2.853,29.755-12.275,32.519-32.161a41.972,41.972,0,0,1-31.452,16.993,43.94,43.94,0,0,1-20.028-3.434,86.761,86.761,0,0,0-37.623-6.543c-23.792,1.464-41.728,18.668-63.691,24.159-10.981,2.745-19.309,1.73-24.891.029a34.31,34.31,0,0,0-19.623-.321c-23.809,6.946-37.615,3.741-45.1-.329.746,5.358,3.625,11.2,12.066,13.561,0,0,17.5,3.319,35.515-2.311a18.59,18.59,0,0,1,12.8.655,45.717,45.717,0,0,0,6.91,2.26A51.265,51.265,0,0,0,147.99,295.573Z" style="fill:#ed8b84"/><path d="M59.651,301.481c.109.03.219.056.331.077.754.144,18.7,3.437,37.452-2.423a14.6,14.6,0,0,1,10.043.519,49.926,49.926,0,0,0,7.533,2.466,52.987,52.987,0,0,0,12.7,1.522,57.176,57.176,0,0,0,22.113-4.5,139.324,139.324,0,0,0,16.878-8.625c11.806-7.011,25.966-10.568,42.086-10.572h.012a44.26,44.26,0,0,1,19.075,4.349c7.683,3.695,19.373,7.611,31.432,5.308,9.68-1.853,40.859-11.031,35.672-51.38-.007-.053-.015-.106-.024-.157-.149-.882-3.754-21.8-12.629-40.318a42.342,42.342,0,0,1-4.12-18.418,334.23,334.23,0,0,1,2.418-38.343c1.649-14.253,3.575-30.363,5.724-47.883a4,4,0,1,0-7.941-.973c-2.151,17.537-4.079,33.666-5.73,47.937a342.075,342.075,0,0,0-2.471,39.22,50.409,50.409,0,0,0,4.9,21.917c8.127,16.957,11.705,36.767,11.944,38.123,4.13,32.443-19.076,40.47-29.252,42.417-9.914,1.9-19.862-1.487-26.46-4.659a52.316,52.316,0,0,0-22.543-5.14h-.014c-17.577,0-33.11,3.939-46.168,11.693a131.5,131.5,0,0,1-15.9,8.131,47.816,47.816,0,0,1-29.791,2.583,42.145,42.145,0,0,1-6.322-2.063,22.613,22.613,0,0,0-15.556-.792c-15.921,4.977-31.708,2.518-33.423,2.227-3.586-1.038-6.05-2.851-7.53-5.539-3.149-5.719-.856-13.544-.837-13.61a3.968,3.968,0,0,0,.175-1.065,2.374,2.374,0,0,1,1.784-2.249c6.141-1.5,13.657-2.637,18.6-3.3-.915,4.8-4.9,7.574-12.089,8.437a4,4,0,0,0,.471,7.971,3.918,3.918,0,0,0,.482-.028c11.829-1.419,18.8-7.861,19.307-17.5,22.931-4.229,43.02-19.446,43.9-20.117.048-.036.094-.073.14-.111,15.6-13.09,35.919-25.978,46.642-32.5a74.624,74.624,0,0,0,23.774-22.925l.459-.713a57.079,57.079,0,0,0,8.715-25.26c1.3-13.733,2.428-33.878.394-51.866C203.605,92.06,202,55.1,201.424,40.2a4,4,0,0,0-7.994.309c.722,18.619,2.283,52.957,4.633,73.738,1.957,17.3.857,36.857-.409,50.212a49.038,49.038,0,0,1-7.488,21.7l-.432.67a66.6,66.6,0,0,1-21.218,20.448c-10.9,6.625-31.559,19.729-47.554,33.137-1.267.953-21.386,15.85-42.76,18.947a226.125,226.125,0,0,0-24.885,4.126,10.392,10.392,0,0,0-7.852,9.252c-.605,2.287-2.635,11.513,1.59,19.247C49.61,296.665,53.848,299.86,59.651,301.481Z" style="fill:#3c3c4f"/></svg>