<?xml version="1.0" ?><svg id="Слой_1" style="enable-background:new 0 0 56 56;" version="1.1" viewBox="0 0 56 56" xml:space="preserve" xmlns="http://www.w3.org/2000/svg" xmlns:xlink="http://www.w3.org/1999/xlink"><style type="text/css">
	.st0{fill:#414042;}
</style><g id="XMLID_3166_"><path class="st0" d="M45.191,50.566c-2.728,0-9.193-0.175-11.495-1.758L10.992,33.192   c-0.526-0.362-0.885-0.932-0.985-1.563c-0.1-0.632,0.066-1.284,0.455-1.791l1.75-2.28c0.752-9.521,10.328-11.527,10.426-11.547   c0.273-0.056,0.56,0.009,0.786,0.175s0.372,0.419,0.402,0.698c0.352,3.242,1.519,5.602,3.469,7.016   c3.105,2.252,7.198,1.422,7.239,1.413c0.425-0.091,0.862,0.107,1.076,0.486l7.979,14.168c0.568,0.988,2.588,1.645,3.25,1.796   c1.788,0.254,4.948,1.497,4.948,4.447c0,2.68-2.087,4.344-5.445,4.344C46.172,50.559,45.764,50.566,45.191,50.566z M22,18.259   c-2.257,0.748-7.434,3.169-7.813,9.727c-0.012,0.2-0.083,0.392-0.205,0.551l-1.934,2.52c-0.078,0.102-0.075,0.207-0.066,0.261   c0.009,0.054,0.039,0.155,0.143,0.227L34.829,47.16c1.7,1.169,7.95,1.483,11.489,1.395c1.311,0,3.469-0.305,3.469-2.344   c0-1.95-3.28-2.479-3.313-2.482c-0.429-0.095-3.517-0.848-4.624-2.773l-7.641-13.571c-1.524,0.177-5.108,0.297-8.088-1.864   C23.946,23.943,22.563,21.504,22,18.259z" id="XMLID_18_"/><path class="st0" d="M45.035,47.455c-4.392,0-8.65-1.41-12.317-4.078l-20.117-14.64l1.177-1.617l20.118,14.64   c3.321,2.418,7.174,3.695,11.14,3.695c1.617,0,5.377-0.015,5.377-0.015l0.008,2C50.42,47.44,46.654,47.455,45.035,47.455z" id="XMLID_17_"/><path class="st0" d="M19.652,32.731l-1.518-1.303c4.659-5.431-1.155-10.829-1.405-11.056l1.346-1.479   C20.689,21.269,24.381,27.219,19.652,32.731z" id="XMLID_16_"/><path class="st0" d="M40.226,41.796c-2.393,0-4.638-1.302-5.808-3.452l-6.569-12.075l1.757-0.956l6.568,12.076   c0.938,1.725,2.876,2.671,4.812,2.344l1.565-0.262l0.33,1.973l-1.565,0.262C40.951,41.766,40.587,41.796,40.226,41.796z" id="XMLID_15_"/><path class="st0" d="M25.086,33.08c-0.435,0-0.835-0.286-0.961-0.726c-0.152-0.531,0.156-1.084,0.687-1.236   l5.696-1.627c0.528-0.146,1.084,0.155,1.236,0.688c0.151,0.531-0.156,1.084-0.688,1.236l-5.696,1.627   C25.27,33.067,25.177,33.08,25.086,33.08z" id="XMLID_14_"/><path class="st0" d="M34.546,30.722c-0.435,0-0.835-0.286-0.961-0.726c-0.151-0.531,0.156-1.084,0.688-1.236   l2.742-0.783c0.528-0.149,1.084,0.155,1.236,0.687c0.151,0.531-0.156,1.084-0.688,1.236l-2.742,0.783   C34.729,30.709,34.638,30.722,34.546,30.722z" id="XMLID_13_"/><path class="st0" d="M36.223,34.114c-0.435,0-0.835-0.286-0.961-0.726c-0.151-0.531,0.156-1.084,0.688-1.236   l2.759-0.788c0.526-0.146,1.084,0.155,1.236,0.688c0.151,0.531-0.156,1.084-0.688,1.236l-2.759,0.788   C36.406,34.102,36.314,34.114,36.223,34.114z" id="XMLID_12_"/><path class="st0" d="M38.043,37.526c-0.435,0-0.835-0.286-0.961-0.726c-0.151-0.531,0.156-1.084,0.688-1.236   l2.842-0.812c0.526-0.145,1.084,0.155,1.236,0.688c0.151,0.531-0.156,1.084-0.688,1.236l-2.842,0.812   C38.227,37.514,38.135,37.526,38.043,37.526z" id="XMLID_11_"/><rect class="st0" height="8.73" id="XMLID_10_" transform="matrix(0.2759 0.9612 -0.9612 0.2759 54.7619 -2.3911)" width="2" x="27.968" y="30.787"/><path class="st0" d="M29.297,40.257c-0.438,0-0.839-0.289-0.962-0.731c-0.148-0.532,0.163-1.084,0.695-1.231   l2.505-0.697c0.531-0.151,1.083,0.162,1.231,0.694s-0.163,1.084-0.694,1.231l-2.505,0.697   C29.477,40.245,29.386,40.257,29.297,40.257z" id="XMLID_9_"/><path class="st0" d="M24.697,14.062c-0.127,0-0.256-0.024-0.381-0.076c-0.51-0.211-0.753-0.795-0.542-1.306   l2.735-6.625c0.211-0.51,0.793-0.753,1.306-0.542c0.51,0.211,0.753,0.795,0.542,1.306l-2.735,6.625   C25.463,13.829,25.09,14.062,24.697,14.062z" id="XMLID_8_"/><path class="st0" d="M33.714,26.791c-0.46,0-0.874-0.319-0.976-0.787c-1.321-6.052,2.289-11.027,2.444-11.235   l4.295-5.773c0.33-0.442,0.957-0.534,1.399-0.205c0.443,0.33,0.535,0.956,0.206,1.399l-4.294,5.771   c-0.029,0.04-3.221,4.47-2.098,9.617c0.118,0.54-0.224,1.073-0.764,1.19C33.856,26.784,33.784,26.791,33.714,26.791z" id="XMLID_7_"/><path class="st0" d="M22.832,17.993H10.978c-0.552,0-1-0.448-1-1s0.448-1,1-1h11.854c0.552,0,1,0.448,1,1   S23.384,17.993,22.832,17.993z" id="XMLID_6_"/><path class="st0" d="M10.194,24.441H5.212c-0.552,0-1-0.448-1-1s0.448-1,1-1h4.982c0.552,0,1,0.448,1,1   S10.747,24.441,10.194,24.441z" id="XMLID_5_"/><path class="st0" d="M46.342,50.555H25.251c-0.552,0-1-0.447-1-1s0.448-1,1-1h21.091c0.553,0,1,0.447,1,1   S46.895,50.555,46.342,50.555z" id="XMLID_4_"/><path class="st0" d="M15.685,41.796H9.297c-0.552,0-1-0.447-1-1s0.448-1,1-1h6.387c0.552,0,1,0.447,1,1   S16.237,41.796,15.685,41.796z" id="XMLID_3_"/><path class="st0" d="M34.546,30.722c-0.435,0-0.835-0.286-0.961-0.726c-0.151-0.531,0.156-1.084,0.688-1.236   l2.742-0.783c0.528-0.149,1.084,0.155,1.236,0.687c0.151,0.531-0.156,1.084-0.688,1.236l-2.742,0.783   C34.729,30.709,34.638,30.722,34.546,30.722z" id="XMLID_2_"/></g></svg>