<?xml version="1.0" ?><svg viewBox="0 0 48.03 48" xmlns="http://www.w3.org/2000/svg"><defs><style>.cls-1,.cls-2{fill:none;}.cls-2{stroke:#495053;stroke-linecap:round;stroke-linejoin:round;stroke-width:2px;}</style></defs><title/><g data-name="Layer 2" id="Layer_2"><g data-name="Stroke icons" id="Stroke_icons"><rect class="cls-1" height="48" transform="translate(0 48) rotate(-90)" width="48"/><path class="cls-2" d="M1,47H41A29,29,0,0,0,1,47Z"/><path class="cls-2" d="M32.56,6.82s3.64,5.95,1.78,15.55"/><path class="cls-2" d="M32.56,6.82S25.94,9,21.19,17.58"/><path class="cls-2" d="M47,27a20.5,20.5,0,0,0-12.69-4.62,22,22,0,0,0-13.15-4.79A20.56,20.56,0,0,0,8.5,13a21.58,21.58,0,0,1,24-6.14A21.58,21.58,0,0,1,47,27"/><line class="cls-2" x1="32.56" x2="33.58" y1="6.82" y2="4"/><line class="cls-2" x1="28.16" x2="20.84" y1="18.89" y2="39"/></g></g></svg>