<?xml version="1.0" ?><svg id="Flat" viewBox="0 0 340 340" xmlns="http://www.w3.org/2000/svg"><path d="M115.646,231.266a3.5,3.5,0,0,1-2.136-6.274c42.931-33.024,38.278-109.658,38.225-110.428a3.5,3.5,0,0,1,6.985-.473,202.356,202.356,0,0,1-3,44.615c-5.758,32.328-18.879,57.168-37.946,71.835A3.481,3.481,0,0,1,115.646,231.266Z" style="fill:#82936e"/><path d="M196.04,220.567s30.768-31.083,30.558-77.735a1.193,1.193,0,0,1,2.244-.584c3.379,6.394,9.364,20.63,11.017,43.531,0,0-.335-19.688,12.042-42.457,9.422-17.334,8.569-43.049,7.625-54.339a1.2,1.2,0,0,1,2.272-.611c4.411,9.427,11.659,32.888,4.821,77.337,0,0-3.72,21.016,5.27,37.871,0,0,1.013-17.988,9.227-34.079a1.192,1.192,0,0,1,2.03-.143c3.515,4.941,13.969,21.145,14.247,39.5,0,0,.334-17.394,9.366-43.82a94.353,94.353,0,0,0,4.575-38.226,1.2,1.2,0,0,1,2.291-.572c7.655,18.277,24.143,67.193,11.531,126.072H196.088Z" style="fill:#82936e"/><path d="M34.7,100.526c11.361,11.762,41.286,48.928,35.572,109.337L57.891,221.905,41.5,190.128s8.506-45.04-8.765-88.311A1.2,1.2,0,0,1,34.7,100.526Z" style="fill:#c9d38c"/><path d="M18.755,252.314s-8.514-9.437-8.514-29.881c0,0,2.863-18.249.806-30.272a1.2,1.2,0,0,1,2.014-1.045A47.484,47.484,0,0,1,26.755,217.1s4.439-38.083-7.471-67.011a1.192,1.192,0,0,1,1.992-1.252c11,12.434,36.166,45.051,42.368,89.152L52.088,252.314Z" style="fill:#82936e"/><path d="M52.088,252.314s-9.174-18.82,8.993-47.078a99.293,99.293,0,0,0,11.937-26.665c4.855-17.144,9.552-43.9,4.5-74.354a1.194,1.194,0,0,1,2.176-.862c7.656,11.857,25.666,46.456,12.843,94.189,0,0,19.395-13.618,34.725-44.035a1.193,1.193,0,0,1,2.254.381c1.454,12.265,4.238,50.6-13.868,73.876,0,0,80.488-46.776,75.689-137.045a1.193,1.193,0,0,1,2.313-.477c6.569,18.2,18.95,70.353-23.4,133.078,0,0,22.3-12.775,32.9-32.754a1.2,1.2,0,0,1,2.244.342c1.669,9.614,4.76,37.335-9.3,61.4Z" style="fill:#c9d38c"/><path d="M108.445,166.4a3.5,3.5,0,0,1-3.635-4.511c5.469-17.915.7-37.5.651-37.7a3.5,3.5,0,0,1,6.79-1.7c.22.874,5.3,21.624-.746,41.443A3.5,3.5,0,0,1,108.445,166.4Z" style="fill:#82936e"/><path d="M295.2,168.692c-.059,0-.119,0-.178,0a3.5,3.5,0,0,1-3.321-3.672,159.519,159.519,0,0,0-8.351-59.2,3.5,3.5,0,0,1,6.522-2.542c.431,1.107,10.555,27.507,8.82,62.091A3.5,3.5,0,0,1,295.2,168.692Z" style="fill:#c9d38c"/></svg>