<?xml version="1.0" ?><svg id="Layer_1" style="enable-background:new 0 0 64 64;" version="1.1" viewBox="0 0 64 64" xml:space="preserve" xmlns="http://www.w3.org/2000/svg" xmlns:xlink="http://www.w3.org/1999/xlink"><style type="text/css">
	.st0{fill:#FF6C58;}
	.st1{fill:#D7385E;}
	.st2{fill-rule:evenodd;clip-rule:evenodd;fill:#314A52;}
</style><g id="Cleats"><polygon class="st0" points="20,27 40,15 47,22 61,20 61,41 3,41 3,32  "/><path class="st1" d="M56,23c0,7.2-14.3,13-32,13c-9.7,0-17.6-1.4-17.6-3.1c0-0.2,0.2-0.5,0.5-0.7c0.6-0.4,1.2-0.7,1.9-0.8l10.7-2.7   l-1-3.9L7.8,27.5C3.2,28.6,0,32.8,0,37.5C0,41.1,2.9,44,6.5,44H52l9-6V21h-5.4C55.9,21.7,56,22.3,56,23z"/><path class="st2" d="M24,46v-2h4v2c0,1.1-0.9,2-2,2C24.9,48,24,47.1,24,46z M16,46v-2h4v2c0,1.1-0.9,2-2,2C16.9,48,16,47.1,16,46z    M8,46v-2h4v2c0,1.1-0.9,2-2,2C8.9,48,8,47.1,8,46z M40.1,12.4c0.5-0.2,1.2-0.4,1.9-0.4h2v2c0,0,0,0,0,0c0,0,0,0.1,0,0.2   c0,0.2,0,0.4,0.1,0.7c0.1,0.6,0.4,1.3,0.8,2.1c0.9,1.4,2.7,3.1,7.1,3.1c2.4,0,4.5-0.7,6-1.7c0.7-0.5,1.3-1,1.6-1.4   c0.3-0.5,0.4-0.8,0.4-0.9h4v18c0,3.3-1.6,6.2-4,8v4c0,1.1-0.9,2-2,2c-1.1,0-2-0.9-2-2v-2.2c-0.6,0.1-1.3,0.2-2,0.2h-6v2   c0,1.1-0.9,2-2,2c-1.1,0-2-0.9-2-2v-6h10c3.3,0,6-2.7,6-6V21.8c-2.1,1.3-4.9,2.2-8,2.2c-5.6,0-8.8-2.3-10.4-4.9   c-0.5-0.8-0.9-1.7-1.1-2.4c-0.1,0-0.2,0.1-0.2,0.1c-0.8,0.5-1.8,1.1-2.8,1.8l2,2c0.8,0.8,0.8,2,0,2.8c-0.8,0.8-2,0.8-2.8,0   l-2.5-2.5l0.2-0.2c-0.1,0-0.1,0.1-0.2,0.1c-1.3,0.9-2.6,1.8-3.8,2.6l1.1,1.1c0.8,0.8,0.8,2,0,2.8c-0.8,0.8-2,0.8-2.8,0l-1.9-1.9   c-1.4,0.7-2.8,1.4-4.3,1.9l1,1.2c0.7,0.8,0.6,2.1-0.2,2.8s-2.1,0.6-2.8-0.2l-5-5.7l2.9-0.9c2.9-0.9,5.6-2.2,8.2-3.7   c1.3-0.7,3-1.9,4.9-3.3c0.9-0.6,1.7-1.2,2.6-1.8c1.4-1,2.8-1.9,4.1-2.6C38.9,13,39.5,12.7,40.1,12.4z"/></g></svg>