<?xml version="1.0" ?><!DOCTYPE svg  PUBLIC '-//W3C//DTD SVG 1.1//EN'  'http://www.w3.org/Graphics/SVG/1.1/DTD/svg11.dtd'><svg enable-background="new 0 0 50 50" height="50px" id="Layer_1" version="1.1" viewBox="0 0 50 50" width="50px" xml:space="preserve" xmlns="http://www.w3.org/2000/svg" xmlns:xlink="http://www.w3.org/1999/xlink"><g><path d="M22.9,36c0,0-3.4-12-1-23h2c0,0,2.3,18.8,5.6,23H22.9z" fill="#DE9E56"/></g><g opacity="0.3"><path d="M24.6,18.6c-0.5-3.2-0.8-5.6-0.8-5.6h-1.3c-0.4,0-0.7,0.9-0.9,1.4c0-0.1,0-0.1,0-0.1c-0.1,0.3-0.1,0.6-0.1,0.9   C21.2,17.1,21,19,21,20.8c0.6-0.2,1.1-0.6,1.5-1.1c1,5.8,2.6,13.7,4.6,16.3h2.4C27.3,33.2,25.6,24.4,24.6,18.6z"/></g><g><path d="M21.3,7c0,0-7.4-5.7-13.8,0.1l5,2.3L14,7.8v2.1l1.6,0.5l2.9-2l-1.1,2.8l6.4,3.4C23.7,14.6,25.3,10.6,21.3,7   z" fill="#468E50"/></g><g><path d="M34.4,15.5c0,0-6-4.6-11.2,0.1l4.3,1.9l1.5-1.2v1.7l1,0.4l2.2-1.6L31.3,19l5.1,2.7   C36.4,21.7,37.7,18.5,34.4,15.5z" fill="#468E50"/></g><g><path d="M29.3,13.1l1.4-0.7L31,9.8l1.5,2l6.6-1.8c0,0-1.5-3.8-6.6-3.7c0,0-8.8,0.9-9.5,9l4.9-1.7" fill="#5BA558"/></g><g><path d="M17.7,16.6l-1.5,0l-1.2-2.1l-0.5,2.4L8.1,18c0,0-0.2-4,4.2-6.1c0,0,7.8-2.9,11.5,3.9l-4.8,0.6" fill="#5BA558"/></g><g><circle cx="24.6" cy="15.5" fill="#EAD0AD" r="2.4"/></g><g><circle cx="19.9" cy="17.9" fill="#EAD0AD" r="2.4"/></g><g opacity="0.1"><path d="M22.3,17.9c0,1.3-1.1,2.4-2.4,2.4c-1.2,0-2.3-1-2.3-2.2c0.4,0.4,1,0.6,1.6,0.6c1.3,0,2.4-1.1,2.4-2.4c0-0.1,0-0.1,0-0.2   C22,16.5,22.3,17.2,22.3,17.9z"/></g><g opacity="0.1"><path d="M27,15.5c0,1.3-1.1,2.4-2.4,2.4c-1.2,0-2.3-1-2.3-2.2c0.4,0.4,1,0.6,1.6,0.6c1.3,0,2.4-1.1,2.4-2.4c0-0.1,0-0.1,0-0.2   C26.7,14.2,27,14.8,27,15.5z"/></g><g><path d="M16.5,35.9c-5.8,0-11.5,0-11.5,4.3c0,4.9,10.6,6.1,18.3,3.5s17.3,1.7,21.1-3.5S32.9,35,32.9,35" fill="#5FA3E0"/></g><g><path d="M40.6,39H9.4c-0.4,0-0.6-0.6-0.3-0.9c4-3.8,9.6-6.1,15.8-6.1s11.8,2.3,15.8,6.1C41.2,38.4,41,39,40.6,39z" fill="#F4CD76"/></g><g opacity="0.1"><path d="M40.7,39h-6.5c0-0.1-0.1-0.2-0.1-0.2c-3.8-3.5-9-5.8-14.8-6.1c1.9-0.5,3.8-0.7,5.8-0.7c6.2,0,11.8,2.3,15.8,6.1   C41.2,38.4,41.1,39,40.7,39z"/></g></svg>