<?xml version="1.0" ?><!DOCTYPE svg  PUBLIC '-//W3C//DTD SVG 1.1//EN'  'http://www.w3.org/Graphics/SVG/1.1/DTD/svg11.dtd'><svg enable-background="new 0 0 512 512" height="512px" id="Grass" version="1.1" viewBox="0 0 512 512" width="512px" xml:space="preserve" xmlns="http://www.w3.org/2000/svg" xmlns:xlink="http://www.w3.org/1999/xlink"><g><path d="M81.577,272.908c27.802-2.61,87.345-0.104,103.883,65.373h-72.092c0,0,1.09-35.252-33.842-56.822   C75.771,279.141,77.183,273.32,81.577,272.908z" fill="#4D4D4D"/><path d="M181.01,338.281c0,0-11.729-93.049,34.073-162.25c2.811-4.246,9.427-2.262,9.325,2.829   c-0.648,32.473,1.191,106.5,27.803,159.42H181.01z" fill="#4D4D4D"/><path d="M205.93,338.281c0,0,99.422-72.137,121.514-147.559c1.336-4.561,7.974-4.071,8.748,0.618   c5.467,33.111,8.28,98.227-39.479,146.941H205.93z" fill="#4D4D4D"/><path d="M385.472,332.574c4.152-13.997,17.394-50.689,47.712-75.393c3.096-2.523,0.871-7.498-3.066-6.828   c-25.821,4.393-79.263,21.48-109.461,87.927h57.216C381.394,338.281,384.47,335.951,385.472,332.574z" fill="#4D4D4D"/><path d="M255.326,338.281c0,0,86.959-50.566,119.773-131.084c2.003-4.915,9.172-3.956,9.7,1.325   c3.197,31.939,2.823,93.413-39.581,129.759H255.326z" fill="#6ABF58"/><path d="M255.326,338.281h37.213c-0.771-12.383,0.483-23.195,1.274-28.103   C272.165,328,255.326,338.281,255.326,338.281z" fill="#4D4D4D"/><path d="M214.492,338.281c0,0-12.593-99.166,68.426-162.43c4.551-3.554,10.988,1.096,9.063,6.54   c-10.196,28.843-24.522,88.852-0.058,155.891H214.492z" fill="#6ABF58"/><path d="M223.034,331.514c4.632-24.845-1.331-48.65-3.741-56.785c-8.563,35.333-4.801,63.553-4.801,63.553h8.229   L223.034,331.514z" fill="#4D4D4D"/><path d="M97.604,199.058c34.762,2.81,109.312,22.68,129.242,139.223h-67.642c0,0-1.18-69.21-66.381-128.153   C88.33,206.065,91.565,198.57,97.604,199.058z" fill="#6ABF58"/><path d="M152.322,241.821c-1.703-1.929-4.814,0.555-3.526,2.72c9.467,15.914,19.081,30.94,25.698,48.387   c5.645,14.884,8.423,30.045,12.024,45.353h5.894C190.789,305.088,173.883,266.234,152.322,241.821z" fill="#4D4D4D"/><path d="M249.458,290.863c0.989-18.449,5.729-35.678,10.257-53.436c0.564-2.214-2.68-3.748-3.792-1.599   c-9.362,18.085-13.01,39.089-13.577,59.3c-0.359,12.787-0.506,29.673,4.211,43.152h6.313   C248.55,323.303,248.673,305.487,249.458,290.863z" fill="#4D4D4D"/><path d="M263.111,226.11c3.126-4.37,5.599-9.435,7.512-14.432c0.349-0.91-1.017-1.677-1.64-0.955   c-3.565,4.135-6.478,9.223-7.838,14.558C260.831,226.515,262.421,227.075,263.111,226.11L263.111,226.11z" fill="#4D4D4D"/><path d="M343.947,298.325c-7.89,9.04-14.68,18.954-23.025,27.619c-4.364,4.532-9.12,8.489-13.965,12.337h13.782   c11.843-10.862,21.771-24.668,26.393-38.102C347.741,298.406,345.186,296.906,343.947,298.325z" fill="#4D4D4D"/><path d="M369.751,239.715c-2.237,7.024-4.447,14.059-7.242,20.887c-2.491,6.085-5.956,11.842-7.933,18.107   c-0.47,1.49,1.554,2.644,2.617,1.523c9.503-10.019,14.025-26.765,15.336-40.142C372.691,238.444,370.214,238.259,369.751,239.715   L369.751,239.715z" fill="#4D4D4D"/></g></svg>