<?xml version="1.0" ?><svg id="icons" viewBox="0 0 60 60" xmlns="http://www.w3.org/2000/svg"><path d="M1.5,54.95a5.044,5.044,0,0,0,.64,1.12l1.25,1.69a2.953,2.953,0,0,0,2.1,1.18,20.357,20.357,0,0,0,13.8-4.18s6.08-4.49,13.28-9.82v-.01c6.94-5.12,14.92-11.02,19.52-14.43q.4-.3.78-.57c2.55-1.89,5.23-4.67,6.04-7.53A2.239,2.239,0,0,0,58,19.89a10.1,10.1,0,0,1-3.67-4.33c-.15-.3-.3-.59-.45-.88h-.01L52,14Z" fill="#c4ddf0"/><path d="M52.09,30.5c-4.6,3.41-12.58,9.31-19.52,14.43a25.954,25.954,0,0,1,2.38-10.32A27.343,27.343,0,0,1,48.39,21.09a3.608,3.608,0,0,0,.27,1.11Z" fill="#b5cedd"/><path d="M29.06,15.01a11.974,11.974,0,0,0,6.25-2.3c2.73-2.02,2.72-6.15,2.47-8.46a2.888,2.888,0,0,1,1.16-2.68A2.981,2.981,0,0,1,40.7,1a2.946,2.946,0,0,1,1.76.58,41.242,41.242,0,0,1,11.41,13.1L49.94,17.6a3.855,3.855,0,0,0-1.55,3.49A27.343,27.343,0,0,0,34.95,34.61c-12.2,6.91-10.87,10.57-19.33,16.82-7.49,5.54-12.87,4-14.12,3.52l-.01-.01a5.845,5.845,0,0,1,1.55-6.77l6.23-5.33.01-.01Z" fill="#4580c6"/><path d="M17.86,22.1l.956-12.085a1.826,1.826,0,0,1,1.7-1.712c1.707-.1,4.385.123,5.943,2.23a9.086,9.086,0,0,1,1.924,4.516Z" fill="#4580c6"/><path d="M1.5,54.95l-.01-.01" fill="#c4ddf0"/><path d="M29.06,15.01,22.13,34.86a6.776,6.776,0,0,1-3.71,4L9.28,42.83l10.3-24.8a5.22,5.22,0,0,1,4.87-3.24,5.473,5.473,0,0,1,.9.08A14.989,14.989,0,0,0,29.06,15.01Z" fill="#38689b"/><line fill="#38689b" x1="9.27" x2="9.28" y1="42.84" y2="42.83"/><path d="M34.718,11.9a11.011,11.011,0,0,1-5.51,2.088,10.85,10.85,0,0,0-1.942-4.049c-1.392-1.881-3.812-2.828-6.807-2.633a2.819,2.819,0,0,0-2.641,2.631l-.949,12.009L8.444,42.234,2.39,47.413a6.865,6.865,0,0,0-1.055,9.253l1.253,1.689A3.95,3.95,0,0,0,5.4,59.932c.466.042,1.007.07,1.613.07a21.544,21.544,0,0,0,12.872-4.439L53.466,30.732c1.566-1.159,5.325-4.264,6.409-8.063a3.224,3.224,0,0,0-1.362-3.632,9.278,9.278,0,0,1-3.287-3.917,38.867,38.867,0,0,0-7.52-10.3A1,1,0,1,0,46.294,6.24,37.9,37.9,0,0,1,52.582,14.4l-3.236,2.393a4.864,4.864,0,0,0-1.958,3.688A28.228,28.228,0,0,0,34.233,33.872C27.1,37.946,24.491,41,21.978,43.947a37.857,37.857,0,0,1-6.95,6.679c-6.437,4.759-11.175,4-12.751,3.53a4.85,4.85,0,0,1,1.414-5.224L9.82,43.69l9-3.912a7.824,7.824,0,0,0,4.255-4.588L29.8,15.93a13,13,0,0,0,6.109-2.42c3.134-2.32,3.141-6.864,2.866-9.367a1.9,1.9,0,0,1,.748-1.759,2.026,2.026,0,0,1,2.338,0c.441.332.948.728,1.5,1.188a1,1,0,1,0,1.278-1.539c-.582-.483-1.115-.9-1.582-1.252A4.06,4.06,0,0,0,38.343.768a3.929,3.929,0,0,0-1.558,3.6C37.014,6.438,37.048,10.178,34.718,11.9Zm15.817,6.5,2.982-2.205a11.019,11.019,0,0,0,3.962,4.554,1.218,1.218,0,0,1,.471,1.378c-.615,2.157-2.64,4.684-5.429,6.806l-2.936-7.108A2.892,2.892,0,0,1,50.535,18.4Zm-2.808,4.156c0,.01.005.021.009.031l3.132,7.58L33.677,42.877A25.956,25.956,0,0,1,47.727,22.555ZM4.936,56.521c2.73,0,6.636-.852,11.282-4.288A39.5,39.5,0,0,0,23.5,45.245a35.489,35.489,0,0,1,9.519-8.325,27.768,27.768,0,0,0-1.443,7.511L18.694,53.955A19.167,19.167,0,0,1,5.58,57.939a1.924,1.924,0,0,1-1.387-.775l-.524-.707A12.647,12.647,0,0,0,4.936,56.521ZM19.812,10.1a.825.825,0,0,1,.769-.793c1.625-.094,3.827.136,5.076,1.826a9.361,9.361,0,0,1,1.511,2.919,15.429,15.429,0,0,1-1.659-.164,6.508,6.508,0,0,0-1.064-.091,6.254,6.254,0,0,0-3.735,1.22,6.353,6.353,0,0,0-1.4,1.463Zm1.376,24.436a5.811,5.811,0,0,1-3.164,3.411l-6.872,2.987,1.927-4.641,5.465-1.561A1,1,0,0,0,18,32.806L14.06,33.929l1.026-2.47,4.85-1.383a1,1,0,0,0-.549-1.924l-3.321.947,1.025-2.467,4.236-1.209a1,1,0,1,0-.549-1.924l-2.707.773L19.1,21.8l3.621-1.031a1,1,0,0,0-.547-1.924l-2.094.6.43-1.036A4.23,4.23,0,0,1,21.9,16.62a4.275,4.275,0,0,1,2.545-.826,4.658,4.658,0,0,1,.746.065,16.576,16.576,0,0,0,2.443.2Z" fill="#373737"/><path d="M41.425,30.029a1,1,0,0,0-.814,1.158l.374,2.139a1,1,0,0,0,.985.828,1.141,1.141,0,0,0,.173-.014,1,1,0,0,0,.813-1.158l-.374-2.139A1.006,1.006,0,0,0,41.425,30.029Z" fill="#373737"/><path d="M45.33,27.142a1,1,0,0,0-.813,1.157l.373,2.139a1,1,0,0,0,.984.829,1.028,1.028,0,0,0,.173-.015A1,1,0,0,0,46.86,30.1l-.373-2.14A.994.994,0,0,0,45.33,27.142Z" fill="#373737"/></svg>